<svg width="1600" height="900" viewBox="0 0 1600 900" fill="none" xmlns="http://www.w3.org/2000/svg"><rect width="1600" height="900" fill="#DDECF4"/><rect y="650" width="1600" height="250" fill="#5C8AA1"/><path d="M0 630C189 565 359 555 536 601C731 650 886 727 1076 701C1272 675 1442 578 1600 542V900H0V630Z" fill="#8CB7C9"/><path d="M0 705C207 661 392 670 576 720C759 770 941 796 1120 752C1296 709 1456 636 1600 610V900H0V705Z" fill="#4B738A"/><path d="M505 356C544 284 605 247 689 246C771 245 838 281 885 353" stroke="#2A4158" stroke-width="18" stroke-linecap="round"/><path d="M597 348H789V590H597V348Z" fill="#F6D862"/><circle cx="663" cy="433" r="54" fill="#F098AE"/><path d="M1118 148L1078 258H1158L1118 368" stroke="#F7F8FD" stroke-width="18" stroke-linecap="round" stroke-linejoin="round"/></svg>
