<svg width="1600" height="900" viewBox="0 0 1600 900" fill="none" xmlns="http://www.w3.org/2000/svg"><rect width="1600" height="900" fill="#E6DEF0"/><rect y="634" width="1600" height="266" fill="#6E4E8E"/><path d="M0 628C194 574 380 564 554 603C747 647 929 726 1111 709C1290 692 1450 617 1600 582V900H0V628Z" fill="#997AB9"/><path d="M0 707C198 668 392 676 579 726C760 774 934 788 1101 754C1283 716 1448 649 1600 619V900H0V707Z" fill="#543773"/><path d="M511 575C557 479 630 406 735 366C814 441 847 541 822 650C713 672 602 647 545 604C515 582 504 569 511 575Z" fill="#D2B0F2"/><path d="M632 355L675 280L718 355" stroke="#5C4A3E" stroke-width="18" stroke-linecap="round"/><circle cx="1200" cy="170" r="86" fill="#F0C46E"/></svg>
