<svg width="1600" height="900" viewBox="0 0 1600 900" fill="none" xmlns="http://www.w3.org/2000/svg"><rect width="1600" height="900" fill="#1C2639"/><rect y="618" width="1600" height="282" fill="#2C3851"/><circle cx="1188" cy="184" r="92" fill="#F6D59F"/><path d="M0 650L309 522L530 613L834 440L1132 520L1600 428V900H0V650Z" fill="#44536F"/><path d="M0 708L316 582L551 663L862 488L1112 566L1600 474V900H0V708Z" fill="#637792"/><rect x="513" y="430" width="28" height="170" rx="14" fill="#0F1722"/><path d="M449 459C504 402 594 394 647 450C703 507 705 596 651 656C577 646 514 615 469 566C430 523 424 489 449 459Z" fill="#E26867"/><circle cx="545" cy="517" r="48" fill="#F4C3BF"/></svg>
