<svg width="1600" height="900" viewBox="0 0 1600 900" fill="none" xmlns="http://www.w3.org/2000/svg"><rect width="1600" height="900" fill="#DDE8F3"/><rect y="560" width="1600" height="340" fill="#32455F"/><path d="M0 620L415 470L722 610L1128 300L1600 560V900H0V620Z" fill="#4C6484"/><path d="M0 668L468 506L760 636L1133 366L1600 599V900H0V668Z" fill="#6A86A8"/><path d="M920 154C1005 136 1084 166 1144 242C1205 320 1238 402 1248 493" stroke="#F4F8FC" stroke-width="20" stroke-linecap="round"/><path d="M708 602L761 524L809 548L755 623L807 705L756 732L702 652L650 720L603 694L662 620L615 544L662 516L708 602Z" fill="#E44F3A"/><circle cx="691" cy="493" r="30" fill="#0E1723"/><circle cx="1232" cy="166" r="78" fill="#F0D79D"/></svg>
