<svg width="1600" height="900" viewBox="0 0 1600 900" fill="none" xmlns="http://www.w3.org/2000/svg"><rect width="1600" height="900" fill="#D9EEF7"/><rect y="650" width="1600" height="250" fill="#2C6E8B"/><path d="M0 616C154 578 324 582 501 617C673 651 851 697 1038 680C1239 663 1421 602 1600 560V900H0V616Z" fill="#63B6D6"/><path d="M0 697C151 676 309 678 473 706C660 738 860 763 1065 742C1259 722 1435 670 1600 642V900H0V697Z" fill="#1F4F6A"/><path d="M638 526C676 426 760 364 875 340C920 430 914 528 856 612C751 620 671 593 638 526Z" fill="#F4FBFF"/><path d="M727 575L866 495" stroke="#182430" stroke-width="18" stroke-linecap="round"/><circle cx="1196" cy="166" r="86" fill="#F0D577"/></svg>
