<svg width="1600" height="900" viewBox="0 0 1600 900" fill="none" xmlns="http://www.w3.org/2000/svg"><rect width="1600" height="900" fill="#E6E9CE"/><rect y="630" width="1600" height="270" fill="#7FA15C"/><path d="M0 625C206 535 394 523 562 588C731 654 886 703 1074 660C1250 619 1418 534 1600 504V900H0V625Z" fill="#A7C37E"/><path d="M0 697C217 644 421 651 607 704C800 759 974 781 1154 734C1322 689 1468 615 1600 589V900H0V697Z" fill="#69894A"/><rect x="330" y="325" width="34" height="274" rx="17" fill="#6B4832"/><circle cx="347" cy="282" r="68" fill="#D4E5A2"/><circle cx="420" cy="344" r="58" fill="#BCD581"/><circle cx="282" cy="365" r="54" fill="#E2ECB9"/><circle cx="515" cy="232" r="76" fill="#F0D56F"/></svg>
