<svg width="1600" height="900" viewBox="0 0 1600 900" fill="none" xmlns="http://www.w3.org/2000/svg"><rect width="1600" height="900" fill="#F0E3C5"/><rect y="640" width="1600" height="260" fill="#B97C49"/><path d="M0 624C188 559 384 549 575 596C761 643 933 720 1116 702C1297 684 1452 604 1600 574V900H0V624Z" fill="#E3B06D"/><path d="M0 706C194 665 390 671 578 723C759 773 939 789 1113 752C1291 714 1452 646 1600 623V900H0V706Z" fill="#C78852"/><path d="M519 579L679 335L844 579H519Z" fill="#EDE3D0"/><path d="M609 579L681 460L757 579H609Z" fill="#D29057"/><rect x="716" y="390" width="20" height="96" rx="10" fill="#655140"/><circle cx="1205" cy="166" r="84" fill="#E6B768"/></svg>
