<svg width="1600" height="900" viewBox="0 0 1600 900" fill="none" xmlns="http://www.w3.org/2000/svg"><rect width="1600" height="900" fill="#DAD6D0"/><rect y="646" width="1600" height="254" fill="#4C4A49"/><path d="M0 630C173 584 369 579 561 621C748 662 926 733 1104 716C1287 699 1450 636 1600 602V900H0V630Z" fill="#7B7977"/><path d="M0 713C186 676 383 684 572 733C750 780 930 794 1103 761C1283 726 1455 660 1600 634V900H0V713Z" fill="#5E5C59"/><path d="M533 554L636 445L740 554V646H533V554Z" fill="#E7DCC9"/><rect x="609" y="576" width="44" height="70" fill="#A15B46"/><path d="M812 302C895 259 981 260 1070 304" stroke="#EEF3F6" stroke-width="18" stroke-linecap="round"/></svg>
