<svg width="1600" height="900" viewBox="0 0 1600 900" fill="none" xmlns="http://www.w3.org/2000/svg"><rect width="1600" height="900" fill="#E4D0C3"/><rect y="648" width="1600" height="252" fill="#85482B"/><path d="M0 633C168 578 358 571 544 612C724 652 909 726 1097 707C1280 689 1443 622 1600 587V900H0V633Z" fill="#C46D42"/><path d="M0 711C184 674 378 682 565 730C747 777 927 793 1097 758C1272 721 1447 654 1600 626V900H0V711Z" fill="#6A351E"/><path d="M696 588C642 540 627 465 665 400C705 331 779 302 854 319C886 386 889 464 853 533C817 600 762 611 696 588Z" fill="#F09B49"/><rect x="756" y="214" width="26" height="122" rx="13" fill="#5D4334"/><circle cx="1194" cy="170" r="84" fill="#F1B25A"/></svg>
