<svg width="1600" height="900" viewBox="0 0 1600 900" fill="none" xmlns="http://www.w3.org/2000/svg"><rect width="1600" height="900" fill="#D7E4F5"/><rect y="642" width="1600" height="258" fill="#486788"/><path d="M0 620C164 561 346 551 531 595C718 639 903 716 1090 697C1272 679 1443 608 1600 575V900H0V620Z" fill="#81A2C8"/><path d="M0 703C180 666 367 674 554 724C742 774 919 789 1089 754C1275 715 1445 648 1600 621V900H0V703Z" fill="#5C7DA4"/><path d="M811 549L847 439L885 549H999L905 617L941 727L847 661L754 727L790 617L695 549H811Z" fill="#FFFFFF"/><path d="M1026 188C1101 150 1172 156 1240 206C1312 259 1358 330 1380 420" stroke="#DDF4FF" stroke-width="18" stroke-linecap="round"/></svg>
