<svg width="1600" height="900" viewBox="0 0 1600 900" fill="none" xmlns="http://www.w3.org/2000/svg"><rect width="1600" height="900" fill="#0F1C32"/><rect y="646" width="1600" height="254" fill="#23314B"/><path d="M0 665C175 590 383 576 582 621C768 664 936 737 1119 725C1287 714 1447 654 1600 612V900H0V665Z" fill="#32496C"/><path d="M0 735C200 695 407 702 608 753C798 802 979 813 1144 778C1308 743 1461 684 1600 648V900H0V735Z" fill="#172338"/><path d="M1161 160L1189 248M1135 196L1215 210M1150 233L1208 174" stroke="#FFCC58" stroke-width="16" stroke-linecap="round"/><path d="M1296 128L1322 203M1276 154L1346 170M1286 190L1338 135" stroke="#61B6FF" stroke-width="14" stroke-linecap="round"/><path d="M1380 206L1406 275M1358 235L1430 249M1367 268L1419 216" stroke="#FF7575" stroke-width="14" stroke-linecap="round"/><rect x="621" y="480" width="32" height="160" fill="#0A1524"/><circle cx="637" cy="438" r="40" fill="#18253C"/></svg>
