<svg width="1600" height="900" viewBox="0 0 1600 900" fill="none" xmlns="http://www.w3.org/2000/svg"><rect width="1600" height="900" fill="#E6D8C8"/><rect y="640" width="1600" height="260" fill="#7A563F"/><path d="M0 622C168 573 350 566 536 605C725 644 912 721 1102 704C1295 688 1455 619 1600 590V900H0V622Z" fill="#BD8A61"/><path d="M0 704C184 667 375 675 560 724C748 772 923 791 1092 756C1280 718 1450 649 1600 624V900H0V704Z" fill="#9A693F"/><rect x="354" y="324" width="28" height="250" rx="14" fill="#5D4334"/><circle cx="368" cy="279" r="66" fill="#DBB769"/><circle cx="435" cy="344" r="56" fill="#C78348"/><path d="M628 619L802 441L969 609" stroke="#E7E1D3" stroke-width="20" stroke-linecap="round"/></svg>
